:FULLY-SPECIFIED
:FORCE-ALL-JOINTS-BE-3DOF
:DEGREES
2446
root 2.47565 15.1993 -23.7252 944.322 81.8505 -132.099
lfemur -31.815 20.8943 -12.8158
ltibia 72.3507 -0 0
lfoot -25.0035 16.1241 -0.0641606
ltoes -33.8675 0 0
rfemur -48.506 -24.9845 12.9692
rtibia 50.7214 -0 0
rfoot 18.9588 4.03408 -0.0166387
rtoes 10.4764 -0 0
lowerback 18.2461 0.80224 -3.08751
upperback 0.11478 0.941217 4.05904
thorax -10.281 0.775769 5.98484
lowerneck 3.83196 -13.0949 -14.8118
upperneck 1.15554 -18.261 13.4513
head 2.32821 -9.22523 5.798
lclavicle 3.10601e-15 -4.23411e-14 0
lhumerus -18.7928 -68.5252 104.861
lradius 92.2725 0 0
lwrist 54.7996 0 0
lhand -6.56175 406.647 0
lfingers 7.12502 0 0
lthumb 19.2923 -644.29 0
rclavicle 3.10601e-15 -4.23411e-14 0
rhumerus 19.4205 24.4829 -63.8788
rradius 119.884 0 0
rwrist -7.64011 0 0
rhand -27.3235 -402.846 0
rfingers 7.12502 0 0
rthumb -0.732567 287.176 0
2447
root 2.55258 15.1746 -23.726 941.721 81.8461 -134.524
lfemur -31.1961 21.1586 -12.6617
ltibia 72.6655 -0 0
lfoot -25.3242 16.2832 -0.0556915
ltoes -33.706 0 0
rfemur -48.0012 -24.7735 12.3732
rtibia 48.8138 -0 0
rfoot 18.5888 4.22447 -0.0320484
rtoes 10.6363 -0 0
lowerback 18.1739 0.671658 -3.41623
upperback 0.0188028 0.68686 3.99
thorax -10.3177 0.670219 6.16918
lowerneck 3.7539 -13.1023 -14.8188
upperneck 1.66533 -18.2891 13.26
head 2.47749 -9.23511 5.71705
lclavicle 7.64079e-15 -2.76311e-14 0
lhumerus -21.2242 -68.3139 106.305
lradius 93.9109 0 0
lwrist 57.091 0 0
lhand -5.43683 406.211 0
lfingers 7.12502 0 0
lthumb 20.3737 -644.838 0
rclavicle 7.64079e-15 -2.76311e-14 0
rhumerus 16.7809 22.9119 -65.1623
rradius 120.65 0 0
rwrist -0.554727 0 0
rhand -30.309 -404.201 0
rfingers 7.12502 0 0
rthumb -3.6159 285.849 0
2448
root 2.62795 15.1577 -23.7255 940.616 81.6626 -135.406
lfemur -31.2503 21.2939 -12.6439
ltibia 72.9802 -0 0
lfoot -25.6449 16.4422 -0.0463322
ltoes -33.5445 0 0
rfemur -47.4997 -24.5577 11.7803
rtibia 46.9062 -0 0
rfoot 18.2188 4.41495 -0.0462283
rtoes 10.7963 -0 0
lowerback 18.1072 0.542451 -3.41659
upperback -0.0650043 0.516758 4.00332
thorax -10.3509 0.591805 6.23109
lowerneck 3.74396 -13.1214 -14.9944
upperneck 2.13706 -18.3463 13.125
head 2.62968 -9.26348 5.67862
lclavicle -1.57537e-14 2.34566e-14 0
lhumerus -23.9696 -67.8557 107.978
lradius 95.6503 0 0
lwrist 59.1057 0 0
lhand -5.20198 405.273 0
lfingers 7.12502 0 0
lthumb 20.5993 -645.8 0
rclavicle -1.57537e-14 2.34566e-14 0
rhumerus 14.1049 21.0959 -66.4761
rradius 121.299 0 0
rwrist 6.19824 0 0
rhand -32.7826 -405.202 0
rfingers 7.12502 0 0
rthumb -6.0043 284.903 0
2449
root 2.70131 15.1312 -23.7268 937.995 81.7618 -137.957
lfemur -31.3045 21.4293 -12.6263
ltibia 73.2949 -0 0
lfoot -25.9656 16.6012 -0.0360829
ltoes -33.7404 0 0
rfemur -47.0016 -24.3373 11.1906
rtibia 44.9986 0 0
rfoot 17.8487 4.60553 -0.0591777
rtoes 10.9562 -0 0
lowerback 17.9557 0.449838 -3.74183
upperback -0.177033 0.309646 3.89609
thorax -10.3636 0.506548 6.3557
lowerneck 3.61736 -13.1423 -15.0827
upperneck 2.65235 -18.3883 12.9537
head 2.8003 -9.28005 5.6093
lclavicle 1.15109e-14 -2.69353e-14 0
lhumerus -26.6958 -67.0546 109.477
lradius 97.4323 0 0
lwrist 61.0289 0 0
lhand -3.04855 404.348 0
lfingers 7.12502 0 0
lthumb 22.6674 -646.964 0
rclavicle 1.15109e-14 -2.69353e-14 0
rhumerus 11.5702 18.9753 -67.8333
rradius 121.783 0 0
rwrist 12.7512 0 0
rhand -34.9741 -406.235 0
rfingers 7.12502 0 0
rthumb -8.11976 283.941 0
2450
root 2.77555 15.106 -23.7244 936.408 81.6851 -139.359
lfemur -31.3587 21.5647 -12.6087
ltibia 73.6097 -0 0
lfoot -26.2862 16.7601 -0.0249442
ltoes -33.9363 0 0
rfemur -46.5069 -24.1122 10.6039
rtibia 45.4145 -0 0
rfoot 17.4786 4.79618 -0.0708959
rtoes 11.1161 -0 0
lowerback 17.8862 0.382994 -3.75167
upperback -0.239118 0.211761 3.84071
thorax -10.3794 0.45922 6.32541
lowerneck 3.46457 -13.2494 -15.2656
upperneck 3.1468 -18.5445 12.7924
head 2.9948 -9.35394 5.5428
lclavicle -6.80216e-15 2.78299e-14 0
lhumerus -29.4751 -66.1813 111.053
lradius 99.1603 0 0
lwrist 62.9936 0 0
lhand -1.13189 403.542 0
lfingers 7.12502 0 0
lthumb 24.5058 -648.006 0
rclavicle -6.80216e-15 2.78299e-14 0
rhumerus 9.11953 16.4569 -69.0614
rradius 122.029 0 0
rwrist 19.1756 0 0
rhand -37.0397 -407.497 0
rfingers 7.12502 0 0
rthumb -10.1129 282.766 0
2451
root 2.84812 15.0778 -23.7237 936.422 81.6004 -139.319
lfemur -31.4129 21.7001 -12.5913
ltibia 73.9244 -0 0
lfoot -26.6068 16.9189 -0.0129164
ltoes -34.1322 0 0
rfemur -46.0155 -23.8825 10.0205
rtibia 45.8305 -0 0
rfoot 17.1085 4.9869 -0.0813823
rtoes 11.2761 -0 0
lowerback 17.6992 0.271475 -3.60824
upperback -0.339907 0.0977675 3.85666
thorax -10.3695 0.398635 6.28788
lowerneck 3.33215 -13.2605 -15.3614
upperneck 3.4677 -18.556 12.6002
head 3.10337 -9.3573 5.47734
lclavicle 3.80797e-15 5.36719e-15 0
lhumerus -32.0342 -64.8898 112.248
lradius 100.897 0 0
lwrist 65.1041 0 0
lhand 1.56824 404.214 0
lfingers 7.12502 0 0
lthumb 27.0916 -647.71 0
rclavicle 3.80797e-15 5.36719e-15 0
rhumerus 6.97597 13.8225 -70.235
rradius 122.031 0 0
rwrist 25.3031 0 0
rhand -38.522 -408.736 0
rfingers 7.12502 0 0
rthumb -11.5427 281.601 0
2452
root 2.92071 15.0439 -23.7203 934.281 81.7245 -141.462
lfemur -31.4671 21.8355 -12.574
ltibia 74.2391 -0 0
lfoot -26.9274 17.0777 0
ltoes -34.3281 0 0
rfemur -45.5276 -23.6483 9.44029
rtibia 46.2464 -0 0
rfoot 16.7383 5.17769 -0.0906363
rtoes 11.436 -0 0
lowerback 17.5355 0.245878 -3.81333
upperback -0.44366 0.0111462 3.77982
thorax -10.3809 0.366037 6.34277
lowerneck 3.25483 -13.3374 -15.5251
upperneck 3.68457 -18.6592 12.4377
head 3.19404 -9.4093 5.42763
lclavicle -3.24267e-15 9.74045e-15 0
lhumerus -34.5955 -63.4727 113.434
lradius 102.625 0 0
lwrist 67.5068 0 0
lhand 3.35929 403.776 0
lfingers 7.12502 0 0
lthumb 28.8038 -648.426 0
rclavicle -3.24267e-15 9.74045e-15 0
rhumerus 4.9669 10.8233 -71.1937
rradius 121.818 0 0
rwrist 30.906 0 0
rhand -39.7586 -409.83 0
rfingers 7.12502 0 0
rthumb -12.735 280.578 0
2453
root 2.98599 15.0111 -23.7174 933.73 81.7125 -142.071
lfemur -31.5213 21.9709 -12.5568
ltibia 74.5538 -0 0
lfoot -27.1818 17.2015 -0.00798158
ltoes -34.524 0 0
rfemur -45.0433 -23.4096 8.86331
rtibia 46.6624 -0 0
rfoot 16.3681 5.36854 -0.0986574
rtoes 11.596 -0 0
lowerback 17.3751 0.128729 -3.785
upperback -0.56605 -0.134138 3.80741
thorax -10.4062 0.298719 6.3943
lowerneck 3.19043 -13.3323 -15.6393
upperneck 3.79875 -18.6442 12.2692
head 3.23036 -9.40309 5.38598
lclavicle -1.71265e-14 -4.11484e-14 0
lhumerus -36.8964 -61.5923 114.263
lradius 104.308 0 0
lwrist 69.9491 0 0
lhand 3.60025 403.754 0
lfingers 7.12502 0 0
lthumb 29.034 -648.488 0
rclavicle -1.71265e-14 -4.11484e-14 0
rhumerus 3.35195 8.15486 -72.0109
rradius 121.403 0 0
rwrist 35.2689 0 0
rhand -40.3895 -410.776 0
rfingers 7.12502 0 0
rthumb -13.3433 279.671 0
